<svg width="18" height="18" viewBox="0 0 18 18" fill="none" xmlns="http://www.w3.org/2000/svg">
<path d="M3.375 6.26786V13.5C3.375 14.7427 4.38236 15.75 5.625 15.75H12.375C13.6177 15.75 14.625 14.7427 14.625 13.5V6.26786M3.375 6.26786L1.125 7.875ZM3.375 6.26786L9 2.25L14.625 6.26786M14.625 6.26786L16.875 7.875Z" fill="#121212"/>
<path d="M3.375 6.26786V13.5C3.375 14.7427 4.38236 15.75 5.625 15.75H12.375C13.6177 15.75 14.625 14.7427 14.625 13.5V6.26786M3.375 6.26786L1.125 7.875M3.375 6.26786L9 2.25L14.625 6.26786M14.625 6.26786L16.875 7.875" stroke="#121212" stroke-width="2" stroke-linecap="round" stroke-linejoin="round"/>
</svg>
