<svg width="18" height="18" viewBox="0 0 18 18" fill="none" xmlns="http://www.w3.org/2000/svg">
<path d="M1.125 5.85C1.125 4.58988 1.125 3.95982 1.37023 3.47852C1.58595 3.05516 1.93016 2.71095 2.35352 2.49523C2.83482 2.25 3.46488 2.25 4.725 2.25H5.88121C6.65773 2.25 7.046 2.25 7.39175 2.365C7.69762 2.46674 7.97805 2.63301 8.21407 2.85255C8.48087 3.10072 8.66716 3.44138 9.03974 4.12268L9.49219 4.95H13.275C14.5351 4.95 15.1652 4.95 15.6465 5.19524C16.0698 5.41095 16.414 5.75516 16.6298 6.17852C16.875 6.65982 16.875 7.28988 16.875 8.55V12.15C16.875 13.4101 16.875 14.0402 16.6298 14.5215C16.414 14.9448 16.0698 15.289 15.6465 15.5048C15.1652 15.75 14.5351 15.75 13.275 15.75H4.725C3.46488 15.75 2.83482 15.75 2.35352 15.5048C1.93016 15.289 1.58595 14.9448 1.37024 14.5215C1.125 14.0402 1.125 13.4101 1.125 12.15V5.85Z" fill="#121212" stroke="#121212" stroke-width="2"/>
</svg>
