<svg width="16" height="15" viewBox="0 0 16 15" fill="none" xmlns="http://www.w3.org/2000/svg">
<path d="M1.56273 6.10714C1.00449 6.10714 0.55077 6.55817 0.54649 7.1173L0.500031 13.2244C0.495689 13.7895 0.951957 14.25 1.51621 14.25H4.87779V10.1786V6.10714H1.56273Z" fill="#E14A0A"/>
<path d="M5.5 6.10714V10.1786V14.25H12.4941C12.9704 14.25 13.3828 13.9187 13.4862 13.4531L15.3476 6.17147C15.4886 5.5358 15.0057 4.93269 14.3555 4.93269H11.5195C10.8791 4.93269 10.3762 4.50332 10.5003 3.87412L11.0248 1.21517C11.1489 0.585963 10.6681 0 10.0278 0H9.82804C9.46661 0 9.13241 0.192338 8.95024 0.504951L5.5 6.10714Z" fill="#E14A0A"/>
</svg>
