<svg width="16" height="16" viewBox="0 0 16 16" fill="none" xmlns="http://www.w3.org/2000/svg">
<path d="M6.99274 1.42174C7.36539 0.525785 8.63461 0.525785 9.00726 1.42174L10.3891 4.74419C10.5462 5.1219 10.9015 5.37998 11.3092 5.41267L14.8961 5.70023C15.8634 5.77777 16.2556 6.98487 15.5186 7.61615L12.7858 9.9571C12.4751 10.2232 12.3394 10.6408 12.4344 11.0387L13.2693 14.5389C13.4944 15.4828 12.4676 16.2288 11.6395 15.723L8.56864 13.8473C8.21953 13.6341 7.78047 13.6341 7.43136 13.8473L4.3605 15.723C3.53239 16.2288 2.50557 15.4828 2.73072 14.5389L3.56564 11.0387C3.66056 10.6408 3.52488 10.2232 3.2142 9.9571L0.481387 7.61615C-0.255562 6.98487 0.136648 5.77777 1.10391 5.70023L4.69077 5.41267C5.09854 5.37998 5.45376 5.12191 5.61085 4.74419L6.99274 1.42174Z" fill="url(#paint0_linear_2502_2)"/>
<defs>
<linearGradient id="paint0_linear_2502_2" x1="1.5" y1="0.5" x2="12.5" y2="19" gradientUnits="userSpaceOnUse">
<stop offset="0.226063" stop-color="#E14A0A"/>
<stop offset="0.903956" stop-color="#FFE520"/>
</linearGradient>
</defs>
</svg>
