<svg width="16" height="16" viewBox="0 0 16 16" fill="none" xmlns="http://www.w3.org/2000/svg">
<path d="M5.37779 15.25H2.01621C1.45196 15.25 0.995689 14.7895 1.00003 14.2244L1.04649 8.1173C1.05077 7.55817 1.50449 7.10714 2.06273 7.10714H5.37779M5.37779 15.25H12.3719C12.8482 15.25 13.2606 14.9187 13.364 14.4531L15.2254 7.17147C15.3664 6.5358 14.8835 5.93269 14.2333 5.93269H11.3973C10.7569 5.93269 10.254 5.50332 10.3781 4.87412L10.9026 2.21517C11.0267 1.58596 10.5459 1 9.90562 1H9.70583C9.3444 1 9.0102 1.19234 8.82803 1.50495L5.37779 7.10714M5.37779 15.25V7.10714" stroke="black"/>
</svg>
