<svg width="18" height="17" viewBox="0 0 18 17" fill="none" xmlns="http://www.w3.org/2000/svg">
<path d="M7.99274 1.42174C8.36539 0.525785 9.63461 0.525785 10.0073 1.42174L11.3891 4.74419C11.5462 5.1219 11.9015 5.37998 12.3092 5.41267L15.8961 5.70023C16.8634 5.77777 17.2556 6.98487 16.5186 7.61615L13.7858 9.9571C13.4751 10.2232 13.3394 10.6408 13.4344 11.0387L14.2693 14.5389C14.4944 15.4828 13.4676 16.2288 12.6395 15.723L9.56864 13.8473C9.21953 13.6341 8.78047 13.6341 8.43136 13.8473L5.3605 15.723C4.53239 16.2288 3.50557 15.4828 3.73072 14.5389L4.56564 11.0387C4.66056 10.6408 4.52488 10.2232 4.2142 9.9571L1.48139 7.61615C0.744438 6.98487 1.13665 5.77777 2.10391 5.70023L5.69077 5.41267C6.09854 5.37998 6.45376 5.12191 6.61085 4.74419L7.99274 1.42174Z" stroke="black"/>
</svg>
